P3
8 8
255
0 0 0 0 0 0 0 0 0 0 0 0 0 0 0 0 0 0 0 0 0 38 23 23 0 0 0 0 0 0 0 0 0 0 0 0 0 0 0 0 0 0 31 19 19 102 63 63 0 0 0 0 0 0 0 0 0 0 0 0 0 0 0 0 0 0 51 31 31 102 63 63 0 0 0 0 0 0 0 0 0 0 0 0 0 0 0 31 0 0 51 31 31 102 63 63 0 0 0 0 0 0 19 19 19 19 19 19 111 0 0 255 0 0 178 31 31 102 63 63 0 0 0 0 0 0 76 76 76 76 76 76 130 19 19 255 0 0 181 23 23 102 63 63 0 0 0 0 0 0 76 76 76 76 76 76 19 19 19 31 0 0 6 3 3 82 51 51 0 0 0 0 0 0 19 19 19 9 9 9 0 0 0 0 0 0 0 0 0 6 3 3 